<?xml version="1.0" standalone="no"?>
<!DOCTYPE svg PUBLIC "-//W3C//DTD SVG 20010904//EN"
 "http://www.w3.org/TR/2001/REC-SVG-20010904/DTD/svg10.dtd">
<svg version="1.0" xmlns="http://www.w3.org/2000/svg"
 width="310.000000pt" height="310.000000pt" viewBox="0 0 310.000000 310.000000"
 preserveAspectRatio="xMidYMid meet">
<metadata>
Created by potrace 1.14, written by Peter Selinger 2001-2017
</metadata>
<g transform="translate(0.000000,310.000000) scale(0.100000,-0.100000)"
fill="#000000" stroke="none">
<path d="M1515 3087 c-101 -9 -120 -17 -139 -61 -9 -20 -22 -51 -30 -68 -8
-18 -26 -59 -40 -90 -14 -31 -26 -59 -26 -62 0 -2 -15 -37 -33 -78 -18 -40
-42 -93 -52 -118 -11 -25 -22 -47 -25 -50 -3 -3 -6 -9 -7 -15 -1 -5 -12 -32
-24 -60 -12 -27 -23 -52 -24 -55 -5 -14 -56 -131 -90 -204 -15 -33 -28 -67
-30 -75 -1 -8 -6 -16 -11 -18 -6 -2 -10 169 -9 464 1 258 -1 474 -3 481 -3 10
-36 12 -141 11 -143 -3 -196 -11 -203 -32 -4 -10 -3 -2261 1 -2278 1 -7 262
-5 276 2 6 3 20 4 33 3 16 -1 24 6 29 25 4 14 7 252 7 529 1 485 1 502 19 502
22 0 135 -112 157 -155 8 -17 19 -33 25 -37 5 -4 6 -8 2 -8 -5 0 1 -13 12 -29
12 -16 21 -32 21 -36 0 -3 10 -27 22 -53 12 -26 23 -49 23 -52 1 -3 4 -12 8
-20 24 -60 55 -160 51 -160 -4 0 -2 -6 3 -13 6 -6 16 -41 22 -77 7 -36 15 -72
18 -80 6 -16 10 -53 17 -140 3 -30 8 -77 12 -105 3 -27 8 -59 9 -70 1 -11 3
-23 4 -26 2 -12 311 -6 320 5 5 6 12 61 15 121 3 61 8 121 10 135 3 14 7 41
10 60 14 95 19 121 33 190 8 41 22 95 30 120 9 25 16 50 17 55 6 39 123 249
164 295 48 54 116 99 128 87 6 -5 8 -212 3 -227 -1 -3 0 -9 1 -15 2 -11 2
-617 -1 -625 -1 -3 0 -9 1 -15 1 -5 2 -222 1 -482 0 -375 2 -472 12 -476 8 -3
79 -4 159 -3 103 2 151 6 162 15 15 12 16 126 14 1160 l-3 1146 -95 -2 c-124
-1 -170 -8 -276 -39 -157 -45 -320 -144 -409 -248 -42 -50 -130 -186 -120
-186 3 0 -1 -13 -10 -30 -16 -31 -35 -40 -35 -17 0 22 -97 164 -149 219 -28
29 -51 56 -51 60 0 4 33 76 73 160 41 84 89 187 107 228 19 41 37 77 41 80 3
3 9 17 12 32 4 15 13 33 20 40 6 7 13 18 14 23 1 6 34 77 73 160 112 232 113
236 76 260 -42 28 -108 34 -231 22z"/>
</g>
</svg>
