<svg width="16" height="20" viewBox="0 0 16 20" fill="none" xmlns="http://www.w3.org/2000/svg">
<path d="M15.7864 5.01339L10.8955 0.209821C10.7591 0.0758929 10.575 0 10.3818 0H0.727273C0.325 0 0 0.319196 0 0.714286V19.2857C0 19.6808 0.325 20 0.727273 20H15.2727C15.675 20 16 19.6808 16 19.2857V5.52009C16 5.33036 15.9227 5.14732 15.7864 5.01339ZM14.3227 5.84821H10.0455V1.64732L14.3227 5.84821ZM14.3636 18.3929H1.63636V1.60714H8.5V6.42857C8.5 6.67721 8.60057 6.91567 8.77958 7.09148C8.95859 7.2673 9.20138 7.36607 9.45455 7.36607H14.3636V18.3929ZM7.81818 12.3661H3.63636C3.53636 12.3661 3.45455 12.4464 3.45455 12.5446V13.6161C3.45455 13.7143 3.53636 13.7946 3.63636 13.7946H7.81818C7.91818 13.7946 8 13.7143 8 13.6161V12.5446C8 12.4464 7.91818 12.3661 7.81818 12.3661ZM3.45455 9.50893V10.5804C3.45455 10.6786 3.53636 10.7589 3.63636 10.7589H12.3636C12.4636 10.7589 12.5455 10.6786 12.5455 10.5804V9.50893C12.5455 9.41071 12.4636 9.33036 12.3636 9.33036H3.63636C3.53636 9.33036 3.45455 9.41071 3.45455 9.50893Z" fill="#149255"/>
</svg>
