<svg width="20" height="16" viewBox="0 0 20 16" fill="none" xmlns="http://www.w3.org/2000/svg">
<path d="M18.9286 3.23409L16.0714 4.90909V1.45455C16.0714 0.652273 15.4308 0 14.6429 0H1.42857C0.640625 0 0 0.652273 0 1.45455V14.5455C0 15.3477 0.640625 16 1.42857 16H14.6429C15.4308 16 16.0714 15.3477 16.0714 14.5455V11.0909L18.9286 12.7659C19.404 13.0455 20 12.6955 20 12.1386V3.86364C20 3.30455 19.404 2.95455 18.9286 3.23409ZM14.4643 14.3636H1.60714V1.63636H14.4643V14.3636ZM18.3929 10.5682L16.0714 9.20909V6.79318L18.3929 5.43182V10.5682ZM3.21429 4.54545H5.71429C5.8125 4.54545 5.89286 4.46364 5.89286 4.36364V3.27273C5.89286 3.17273 5.8125 3.09091 5.71429 3.09091H3.21429C3.11607 3.09091 3.03571 3.17273 3.03571 3.27273V4.36364C3.03571 4.46364 3.11607 4.54545 3.21429 4.54545Z" fill="#149255"/>
</svg>
