<svg width="32" height="32" viewBox="0 0 32 32" fill="none" xmlns="http://www.w3.org/2000/svg">
<g clip-path="url(#clip0_76_466)">
<path d="M16 0C7.16429 0 0 7.16429 0 16C0 24.8357 7.16429 32 16 32C24.8357 32 32 24.8357 32 16C32 7.16429 24.8357 0 16 0ZM16 29.2857C8.66429 29.2857 2.71429 23.3357 2.71429 16C2.71429 8.66429 8.66429 2.71429 16 2.71429C23.3357 2.71429 29.2857 8.66429 29.2857 16C29.2857 23.3357 23.3357 29.2857 16 29.2857Z" fill="#149255"/>
<path d="M23.4073 15.5393L12.8323 7.86072C12.7475 7.79855 12.6471 7.76115 12.5422 7.75269C12.4374 7.74424 12.3323 7.76505 12.2386 7.81282C12.1449 7.86059 12.0664 7.93343 12.0116 8.02324C11.9569 8.11304 11.9282 8.21628 11.9287 8.32144V23.6786C11.9287 24.1464 12.4573 24.4107 12.8323 24.1393L23.4073 16.4607C23.4803 16.4081 23.5398 16.3389 23.5808 16.2588C23.6218 16.1787 23.6432 16.09 23.6432 16C23.6432 15.91 23.6218 15.8213 23.5808 15.7412C23.5398 15.6611 23.4803 15.5919 23.4073 15.5393ZM14.2073 20.325V11.675L20.1609 16L14.2073 20.325Z" fill="#149255"/>
</g>
<defs>
<clipPath id="clip0_76_466">
<rect width="32" height="32" fill="white"/>
</clipPath>
</defs>
</svg>
