<svg width="18" height="16" viewBox="0 0 18 16" fill="none" xmlns="http://www.w3.org/2000/svg">
<path d="M18 2.42541C17.3381 2.71096 16.6177 2.91646 15.8757 2.9965C16.6461 2.53884 17.223 1.81582 17.4981 0.96309C16.7753 1.39311 15.9834 1.69465 15.1576 1.85433C14.8124 1.48534 14.395 1.19139 13.9312 0.990795C13.4675 0.790196 12.9675 0.687247 12.4622 0.688363C10.418 0.688363 8.77395 2.34538 8.77395 4.37879C8.77395 4.66433 8.80856 4.94987 8.8648 5.2246C5.80387 5.06452 3.07391 3.6022 1.25898 1.36328C0.928285 1.92813 0.754987 2.57127 0.75712 3.2258C0.75712 4.50641 1.40824 5.63561 2.40115 6.29971C1.81602 6.27666 1.24458 6.11583 0.733325 5.83029V5.87572C0.733325 7.66901 2.00096 9.15514 3.69042 9.49692C3.37321 9.57932 3.04688 9.62147 2.71914 9.62239C2.47903 9.62239 2.25189 9.59859 2.02259 9.56614C2.48984 11.0285 3.8505 12.0906 5.47074 12.1252C4.2031 13.1181 2.61531 13.7022 0.891239 13.7022C0.581901 13.7022 0.296359 13.6914 0 13.6568C1.63538 14.7059 3.57577 15.3116 5.66542 15.3116C12.4492 15.3116 16.1613 9.69161 16.1613 4.81359C16.1613 4.65351 16.1613 4.49343 16.1505 4.33336C16.8686 3.8077 17.4981 3.15658 18 2.42541Z" fill="#807A7A"/>
</svg>
