<svg width="33" height="32" viewBox="0 0 33 32" fill="none" xmlns="http://www.w3.org/2000/svg">
<g clip-path="url(#clip0_27_1271)">
<path d="M31.8493 3.42847H2.13504C1.5029 3.42847 0.992188 3.93918 0.992188 4.57132V27.4285C0.992188 28.0606 1.5029 28.5713 2.13504 28.5713H31.8493C32.4815 28.5713 32.9922 28.0606 32.9922 27.4285V4.57132C32.9922 3.93918 32.4815 3.42847 31.8493 3.42847ZM30.4208 7.38561V25.9999H3.56362V7.38561L2.5779 6.61775L3.98147 4.81418L5.51005 6.00347H28.4779L30.0065 4.81418L31.41 6.61775L30.4208 7.38561ZM28.4779 5.9999L16.9922 14.9285L5.50647 5.9999L3.9779 4.81061L2.57433 6.61418L3.56004 7.38204L15.76 16.8678C16.1109 17.1403 16.5425 17.2883 16.9868 17.2883C17.4311 17.2883 17.8628 17.1403 18.2136 16.8678L30.4208 7.38561L31.4065 6.61775L30.0029 4.81418L28.4779 5.9999Z" fill="#807A7A"/>
</g>
<defs>
<clipPath id="clip0_27_1271">
<rect width="32" height="32" fill="white" transform="translate(0.992188)"/>
</clipPath>
</defs>
</svg>
