<svg width="29" height="28" viewBox="0 0 29 28" fill="none" xmlns="http://www.w3.org/2000/svg">
<path d="M16.9225 19.481C16.8688 19.4278 16.7963 19.398 16.7208 19.398C16.6452 19.398 16.5727 19.4278 16.519 19.481L12.369 23.631C10.4475 25.5524 7.20469 25.756 5.08326 23.631C2.95826 21.506 3.16183 18.2667 5.08326 16.3453L9.23326 12.1953C9.34397 12.0846 9.34397 11.9024 9.23326 11.7917L7.81183 10.3703C7.75813 10.3171 7.68562 10.2873 7.61004 10.2873C7.53447 10.2873 7.46196 10.3171 7.40826 10.3703L3.25826 14.5203C0.23683 17.5417 0.23683 22.431 3.25826 25.4489C6.27969 28.4667 11.169 28.4703 14.1868 25.4489L18.3368 21.2989C18.4475 21.1882 18.4475 21.006 18.3368 20.8953L16.9225 19.481ZM26.1583 2.55245C23.1368 -0.46898 18.2475 -0.46898 15.2297 2.55245L11.0761 6.70245C11.0229 6.75615 10.9931 6.82866 10.9931 6.90423C10.9931 6.9798 11.0229 7.05232 11.0761 7.10602L12.494 8.52388C12.6047 8.63459 12.7868 8.63459 12.8975 8.52388L17.0475 4.37388C18.969 2.45245 22.2118 2.24888 24.3333 4.37388C26.4583 6.49888 26.2547 9.73816 24.3333 11.6596L20.1833 15.8096C20.1301 15.8633 20.1003 15.9358 20.1003 16.0114C20.1003 16.0869 20.1301 16.1595 20.1833 16.2132L21.6047 17.6346C21.7154 17.7453 21.8975 17.7453 22.0083 17.6346L26.1583 13.4846C29.1761 10.4632 29.1761 5.57388 26.1583 2.55245ZM18.2118 9.01316C18.1581 8.95999 18.0856 8.93016 18.01 8.93016C17.9345 8.93016 17.862 8.95999 17.8083 9.01316L9.71897 17.0989C9.6658 17.1526 9.63597 17.2251 9.63597 17.3007C9.63597 17.3762 9.6658 17.4488 9.71897 17.5024L11.1333 18.9167C11.244 19.0274 11.4261 19.0274 11.5368 18.9167L19.6225 10.831C19.7333 10.7203 19.7333 10.5382 19.6225 10.4274L18.2118 9.01316Z" fill="#807A7A"/>
</svg>
