<svg width="38" height="30" viewBox="0 0 38 30" fill="none" xmlns="http://www.w3.org/2000/svg">
<path d="M1.18175e-08 8.54L18.0502 17.775C18.2312 17.8676 18.4323 17.916 18.6364 17.916C18.8404 17.916 19.0415 17.8676 19.2226 17.775L37.2727 8.54167V24.5833C37.2728 25.9669 36.7347 27.298 35.7688 28.3037C34.8029 29.3094 33.4824 29.9133 32.0783 29.9917L31.7665 30H5.5062C4.09977 30.0001 2.74661 29.4707 1.72432 28.5205C0.702027 27.5703 0.0880969 26.2713 0.00847128 24.89L1.18175e-08 24.5833V8.54ZM5.5062 1.16253e-08H31.7665C33.173 -9.05779e-05 34.5261 0.529256 35.5484 1.47945C36.5707 2.42965 37.1846 3.72866 37.2643 5.11L37.2727 5.41667V5.72333L18.6364 15.2567L1.18175e-08 5.72333V5.41667C-9.2075e-05 4.0331 0.538005 2.70195 1.50391 1.69628C2.46981 0.690612 3.79029 0.0866645 5.19446 0.00833354L5.5062 1.16253e-08H31.7665H5.5062Z" fill="#149255"/>
</svg>
