<svg width="30" height="30" viewBox="0 0 30 30" fill="none" xmlns="http://www.w3.org/2000/svg">
<path d="M28.1307 0.714355H1.84501C1.21286 0.714355 0.702148 1.22507 0.702148 1.85721V28.1429C0.702148 28.7751 1.21286 29.2858 1.84501 29.2858H28.1307C28.7629 29.2858 29.2736 28.7751 29.2736 28.1429V1.85721C29.2736 1.22507 28.7629 0.714355 28.1307 0.714355ZM9.17715 25.0608H4.93786V11.4251H9.17715V25.0608ZM7.05929 9.56079C6.57331 9.56079 6.09825 9.41668 5.69418 9.14668C5.2901 8.87669 4.97516 8.49293 4.78919 8.04395C4.60321 7.59496 4.55455 7.10092 4.64936 6.62428C4.74417 6.14764 4.97819 5.70982 5.32183 5.36618C5.66547 5.02254 6.10329 4.78852 6.57993 4.69371C7.05657 4.5989 7.55061 4.64756 7.9996 4.83354C8.44858 5.01951 8.83234 5.33445 9.10233 5.73853C9.37233 6.1426 9.51643 6.61766 9.51643 7.10364C9.51286 8.46078 8.41286 9.56079 7.05929 9.56079ZM25.0486 25.0608H20.8129V18.4286C20.8129 16.8465 20.7843 14.8144 18.6093 14.8144C16.4057 14.8144 16.0664 16.5358 16.0664 18.3144V25.0608H11.8343V11.4251H15.8986V13.2894H15.9557C16.52 12.2179 17.9021 11.0858 19.9664 11.0858C24.2593 11.0858 25.0486 13.9108 25.0486 17.5822V25.0608Z" fill="#807A7A"/>
</svg>
