<svg width="18" height="18" viewBox="0 0 18 18" fill="none" xmlns="http://www.w3.org/2000/svg">
<path d="M13.0478 10.7658C12.8289 10.6533 11.738 10.1189 11.5351 10.0466C11.3322 9.97029 11.1836 9.93413 11.0369 10.1591C10.8883 10.3821 10.4664 10.8783 10.3338 11.029C10.2052 11.1776 10.0746 11.1957 9.85568 11.0852C8.55391 10.4343 7.70013 9.92409 6.84233 8.45156C6.61532 8.05982 7.06933 8.08795 7.49321 7.2422C7.56553 7.09354 7.52937 6.96698 7.47312 6.85448C7.41687 6.74198 6.97491 5.65316 6.79009 5.20919C6.6113 4.77728 6.42648 4.83754 6.29189 4.82951C6.16332 4.82147 6.01667 4.82147 5.86801 4.82147C5.71935 4.82147 5.48029 4.87772 5.27739 5.09669C5.07449 5.31968 4.50195 5.85606 4.50195 6.94488C4.50195 8.03371 5.29547 9.08838 5.40395 9.23704C5.51645 9.3857 6.96487 11.6196 9.18872 12.5819C10.595 13.1886 11.1454 13.2408 11.8485 13.1363C12.2764 13.072 13.1583 12.602 13.3411 12.0816C13.5239 11.5634 13.5239 11.1194 13.4697 11.027C13.4155 10.9285 13.2668 10.8723 13.0478 10.7658Z" fill="#807A7A"/>
<path d="M17.3008 5.51255C16.8468 4.43377 16.1959 3.46548 15.3662 2.63379C14.5423 1.80692 13.5643 1.14966 12.4875 0.69922C11.3826 0.235164 10.2094 0.00012207 9 0.00012207H8.95982C7.74243 0.00614878 6.5632 0.247217 5.45429 0.721318C4.38667 1.17638 3.41779 1.83481 2.60164 2.65991C1.78 3.48959 1.13514 4.45386 0.689168 5.52862C0.22712 6.64156 -0.00591274 7.8248 0.000113971 9.0422C0.00693068 10.4373 0.336991 11.8119 0.964388 13.058V16.1115C0.964388 16.3566 1.06175 16.5917 1.23505 16.765C1.40835 16.9383 1.6434 17.0356 1.88848 17.0356H4.94403C6.19014 17.663 7.5647 17.9931 8.95982 17.9999H9.00201C10.2053 17.9999 11.3725 17.7669 12.4714 17.3108C13.5428 16.8658 14.5172 16.2162 15.3401 15.3984C16.1698 14.5767 16.8227 13.6165 17.2787 12.5457C17.7528 11.4368 17.9939 10.2576 17.9999 9.04019C18.0059 7.81676 17.7689 6.6295 17.3008 5.51255ZM14.2653 14.3115C12.8571 15.7057 10.9888 16.4731 9 16.4731H8.96585C7.75448 16.4671 6.55115 16.1658 5.48844 15.5993L5.31969 15.5089H2.49115V12.6803L2.40075 12.5116C1.83424 11.4489 1.53291 10.2455 1.52688 9.03416C1.51884 7.03128 2.28424 5.15095 3.68846 3.73467C5.09068 2.3184 6.96498 1.53492 8.96786 1.52689H9.00201C10.0065 1.52689 10.9808 1.72175 11.8988 2.10746C12.7948 2.48313 13.5984 3.02352 14.2894 3.71458C14.9785 4.40364 15.5209 5.20921 15.8966 6.10518C16.2863 7.03329 16.4812 8.01766 16.4771 9.03416C16.4651 11.035 15.6796 12.9093 14.2653 14.3115Z" fill="#807A7A"/>
</svg>
