<svg width="18" height="18" viewBox="0 0 18 18" fill="none" xmlns="http://www.w3.org/2000/svg">
<path d="M8.99758 5.99879C7.345 5.99879 5.99636 7.34743 5.99636 9.00002C5.99636 10.6526 7.345 12.0012 8.99758 12.0012C10.6502 12.0012 11.9988 10.6526 11.9988 9.00002C11.9988 7.34743 10.6502 5.99879 8.99758 5.99879ZM17.999 9.00002C17.999 7.7572 18.0103 6.52564 17.9405 5.28507C17.8707 3.84413 17.5419 2.56529 16.4883 1.5116C15.4323 0.455651 14.1557 0.129187 12.7148 0.0593912C11.472 -0.0104046 10.2404 0.000852795 8.99983 0.000852795C7.75702 0.000852795 6.52546 -0.0104046 5.28489 0.0593912C3.84395 0.129187 2.5651 0.457903 1.51141 1.5116C0.455469 2.56754 0.129004 3.84413 0.0592081 5.28507C-0.0105877 6.52789 0.000669689 7.75945 0.000669689 9.00002C0.000669689 10.2406 -0.0105877 11.4744 0.0592081 12.715C0.129004 14.1559 0.45772 15.4347 1.51141 16.4884C2.56736 17.5444 3.84395 17.8708 5.28489 17.9406C6.52771 18.0104 7.75927 17.9992 8.99983 17.9992C10.2426 17.9992 11.4742 18.0104 12.7148 17.9406C14.1557 17.8708 15.4346 17.5421 16.4883 16.4884C17.5442 15.4325 17.8707 14.1559 17.9405 12.715C18.0125 11.4744 17.999 10.2428 17.999 9.00002ZM8.99758 13.6178C6.44215 13.6178 4.3798 11.5554 4.3798 9.00002C4.3798 6.44459 6.44215 4.38223 8.99758 4.38223C11.553 4.38223 13.6154 6.44459 13.6154 9.00002C13.6154 11.5554 11.553 13.6178 8.99758 13.6178ZM13.8045 5.27157C13.2078 5.27157 12.726 4.78975 12.726 4.19311C12.726 3.59646 13.2078 3.11465 13.8045 3.11465C14.4011 3.11465 14.8829 3.59646 14.8829 4.19311C14.8831 4.33478 14.8554 4.4751 14.8012 4.60603C14.7471 4.73695 14.6677 4.85591 14.5675 4.95609C14.4673 5.05627 14.3483 5.1357 14.2174 5.18984C14.0865 5.24397 13.9462 5.27174 13.8045 5.27157Z" fill="#807A7A"/>
</svg>
